#!OML:ASF E:/inclinewalkrobotboard/Project1/Captureday1/Session1/subject1.ASF
:FULLY-SPECIFIED
:DEGREES
288
root 0 0 0 1.8014273702328087 -10.41351054021193 0.9318585029312447
lowerback -0.15941455832855378 -1.5960630861495508 -2.721990702023549
upperback -0.5904478489393368 -2.0841823470658354 1.7709773999386107
thorax -0.429359937448618 -1.0335150584216901 3.279888193157455
lowerneck -25.506911108027616 -1.8913193107163615 -7.6671735287514915
upperneck 25.00976171001501 -0.18639746759358056 2.5050663429287243
head 12.646259855661764 -0.6240446173016554 2.3142767033948353
rclavicle -4.637731268774918E-15 -1.7106599482808367E-15
rhumerus -30.657809407873668 -0.40266191820033814 -81.99842066011146
rradius 31.691965572987673
rwrist 18.06561329924613
rhand -18.558832185899 9.457346021604016
rfingers 7.1250199999999335
rthumb 7.7245338209831695 -20.31830057148261
lclavicle -8.040469794995875E-15 2.9276233688039636E-15
lhumerus -20.898356076085392 -0.36869959448693557 91.72301690111303
lradius 61.16654989517753
lwrist 1.8618602834745817
lhand -28.528150573365323 20.734972478675445
lfingers 7.125020000000009
lthumb -1.9238271634670792 50.708907890930895
rfemur 9.011529235730464 4.158837363401555 28.171744490767786
rtibia 51.99820878333325
rfoot -1.8141239806733882 0.9029292643009583
rtoes -2.251212804178002
lfemur -27.361437168429973 -4.442666562265681 -12.055574224747934
ltibia 26.6578108486777
lfoot -2.2530682821378747 0.3828100780926018
ltoes 0.6859056771113696
289
root 0 0 0 1.812227154031359 -10.52230977558306 0.9215407993549508
lowerback -0.2416310359882825 -1.630376748936025 -2.719308485391715
upperback -0.5695783584296025 -2.128532872441487 1.7196762294915606
thorax -0.356955656891467 -1.0571042966993054 3.2257585510910385
lowerneck -25.33058671673249 -1.8617607600495834 -7.738623505103024
upperneck 25.914592193007174 -0.12363602007570729 2.3908545401701646
head 12.93474149407959 -0.6340082864404866 2.303611853944044
rclavicle -6.595923361101842E-15 -4.2988890827897596E-16
rhumerus -30.931531244267795 -0.9930791569643818 -81.79959915407284
rradius 31.49328859612932
rwrist 18.265728006992386
rhand -18.432648359561796 9.421426129107166
rfingers 7.1250199999999335
rthumb 7.847542146920942 -20.357941986557318
lclavicle -8.437009469368628E-15 3.2107378642095686E-15
lhumerus -20.398468391001934 -0.016475475010895302 91.54642871840608
lradius 61.06420029816998
lwrist 1.7136184545812867
lhand -28.65662100614435 20.696146016099778
lfingers 7.125020000000006
lthumb -2.0445016837976455 50.65976022615725
rfemur -2.912012059632162 2.587358442636604 24.307329896345536
rtibia 62.3196667022419
rfoot 8.709970652027073 -0.04327533103088932
rtoes 6.4642641118187285
lfemur -22.381972758808946 -3.5451694336135136 -16.450145532766506
ltibia 34.16254035767898
lfoot -1.6182570832046617 -4.074845011562266
ltoes 4.9998919955922165
290
root 0 0 0 1.8304077803242897 -10.598205035095273 0.9092789725797203
lowerback -0.26884459201916844 -1.6661066057407914 -2.7011615793638812
upperback -0.5130115968950603 -2.1756307723047055 1.68781392170991
thorax -0.2763002577592506 -1.0835557176085842 3.1829096700490016
lowerneck -25.24399796802835 -1.842510301650738 -7.781550194639259
upperneck 26.554411238858776 -0.0798917462741654 2.292654452131453
head 13.138250944687938 -0.6395423133570511 2.28843838364578
rclavicle -7.66921223081767E-15 1.2577625814926223E-15
rhumerus -31.375900464459754 -2.16273659125582 -81.48236779788567
rradius 31.149382630618298
rwrist 18.58435280259712
rhand -18.17758934766317 9.38706608573135
rfingers 7.12501999999993
rthumb 8.094135805602823 -20.389894800671016
lclavicle -8.698064931181682E-15 3.897631074818742E-15
lhumerus -20.889010439350955 -0.7405487875459897 91.63299789309215
lradius 61.27425918851829
lwrist 2.1205070975618936
lhand -28.36867438684905 20.889622475018424
lfingers 7.125020000000007
lthumb -1.7671940859290194 50.87494094942041
rfemur -8.22963430648047 1.6394644756590582 23.87512329389807
rtibia 67.37767629574664
rfoot 8.18100779187658 -2.52070615465966
rtoes 11.331606034227335
lfemur -18.122008691480197 -2.9354594609002924 -20.075582388887476
ltibia 34.23659054425231
lfoot -3.580396620829858 -4.134565177858727
ltoes 7.830569420231402
291
root 0 0 0 1.8533669379433975 -10.62390017081097 0.8925391855327772
lowerback -0.24569090192617526 -1.6891701208028131 -2.6810310067588152
upperback -0.44832111624500204 -2.2069606831088278 1.679635463074075
thorax -0.21461665441792288 -1.1023392569633643 3.1630649503614205
lowerneck -25.151053061593192 -1.8131902680380945 -7.799674760066553
upperneck 26.9239563100439 -0.03543739151718417 2.2254461119130813
head 13.244579552123463 -0.632052297907988 2.2778793103127652
rclavicle -5.77926042992456E-15 2.056203659644914E-15
rhumerus -31.765951528405935 -3.3946729359517933 -81.26369169591348
rradius 30.87421610279739
rwrist 18.906018328949823
rhand -17.898912776731727 9.326826130562317
rfingers 7.125019999999926
rthumb 8.362607233881693 -20.442640460817152
lclavicle -7.373580491036524E-15 4.2669870545014384E-15
lhumerus -21.597299998787225 -1.8095161467488978 91.75909109927721
lradius 61.67543040540778
lwrist 2.5763591007172577
lhand -28.054977814321962 21.20185182858329
lfingers 7.125020000000007
lthumb -1.46471350861861 51.21356427169992
rfemur -14.629707603781739 0.18125899994265104 22.678015978135548
rtibia 71.38441795418464
rfoot 2.5680258762479315 -5.01124743534965
rtoes 9.314852568760244
lfemur -13.893148092307957 -2.8805787270929932 -23.549177258776748
ltibia 29.49395012758182
lfoot -9.009140140447528 -0.9396284268490955
ltoes 9.944650324448567
292
root 0 0 0 1.8831245394996052 -10.635558521611536 0.8789053547902378
lowerback -0.22915297912924038 -1.7066200563260776 -2.6729704551877465
upperback -0.3920393186359637 -2.231394543249809 1.6752235334358314
thorax -0.1579965816677984 -1.1171443197378381 3.1533829379058442
lowerneck -25.03482653235756 -1.7838930831324187 -7.829054572832823
upperneck 27.24591192553939 0.0036582626683392405 2.1928293025540215
head 13.33242009316439 -0.6234321783895288 2.280634763433125
rclavicle -3.801643292395367E-15 1.8610284333272966E-15
rhumerus -31.978331379291802 -3.9417195499195476 -81.10938240520296
rradius 30.715616560075695
rwrist 19.067544634859193
rhand -17.77361202293802 9.300831779625213
rfingers 7.125019999999925
rthumb 8.482992068322334 -20.464149534606914
lclavicle -6.61943737587179E-15 4.025310942779934E-15
lhumerus -21.93249018045563 -2.829875875622471 91.78640949165478
lradius 62.126275727206455
lwrist 2.908903093870676
lhand -27.90344203467218 21.49845605399416
lfingers 7.125020000000006
lthumb -1.3192556859004299 51.52598097102943
rfemur -23.601483706276426 -1.1589369146205009 19.918049331020807
rtibia 72.43318691039906
rfoot -2.9422509293385932 -6.703935671056132
rtoes 5.711528492916963
lfemur -8.466841420874154 -3.261909031787728 -26.435478333284124
ltibia 24.4789068319822
lfoot -15.2844476193855 1.8157625869423306
ltoes 9.65917046530113
